Coordinates
version=1
nRows=6
nColumns=63
inDegrees=yes

Units are S.I. units (second, meters, Newtons, ...)
If the header above contains a line with 'inDegrees', this indicates whether rotational values are in degrees (yes) or radians (no).

endheader
time	pelvis_tilt	pelvis_list	pelvis_rotation	pelvis_tx	pelvis_ty	pelvis_tz	hip_flexion_r	hip_adduction_r	hip_rotation_r	knee_angle_r	knee_angle_r_beta	ankle_angle_r	subtalar_angle_r	mtp_angle_r	hip_flexion_l	hip_adduction_l	hip_rotation_l	knee_angle_l	knee_angle_l_beta	ankle_angle_l	subtalar_angle_l	mtp_angle_l	L5_S1_Flex_Ext	L5_S1_Lat_Bending	L5_S1_axial_rotation	L4_L5_Flex_Ext	L4_L5_Lat_Bending	L4_L5_axial_rotation	L3_L4_Flex_Ext	L3_L4_Lat_Bending	L3_L4_axial_rotation	L2_L3_Flex_Ext	L2_L3_Lat_Bending	L2_L3_axial_rotation	L1_L2_Flex_Ext	L1_L2_Lat_Bending	L1_L2_axial_rotation	L1_T12_Flex_Ext	L1_T12_Lat_Bending	L1_T12_axial_rotation	Abs_r3	Abs_r2	Abs_r1	Abs_t1	Abs_t2	neck_flexion	neck_bending	neck_rotation	arm_flex_r	arm_add_r	arm_rot_r	elbow_flex_r	pro_sup_r	wrist_flex_r	wrist_dev_r	arm_flex_l	arm_add_l	arm_rot_l	elbow_flex_l	pro_sup_l	wrist_flex_l	wrist_dev_l
      0.00000000	     -2.34955977	     -4.06480709	     80.98383121	      0.13804656	      0.96978944	      0.44665766	      2.29325334	      1.63329513	     10.63382230	      2.36398936	      0.04125940	     16.84379018	     -3.40193688	      0.00000000	      2.73640833	     -3.77060074	     -6.54346213	      1.49222118	      0.02604417	     25.58685586	      5.41743739	      0.00000000	      0.16460606	      0.14559803	      1.58972102	      0.30568992	      0.19364538	      1.68907858	      0.27043130	      0.35400705	      1.68907858	      0.18812827	      0.35400705	      1.39100589	      0.15285319	      0.29690351	      1.29164833	      0.09405590	      0.22553135	      1.19229077	      1.17576464	      1.64703405	      8.84155140	      0.00000000	      0.00000000	     24.53787968	      5.57468222	      8.13041996	     16.47715462	    -10.73895376	     75.96450420	     39.57326249	     34.51738835	      1.69226610	      6.57341623	     13.83952250	     -5.39729984	     58.51649914	     38.72139570	     81.39406240	      5.16302261	     11.76142584
      0.01666667	     -1.52331828	     -3.93591458	     82.05903688	      0.13597090	      0.97046353	      0.44519235	      1.96213975	      2.34280642	     11.19592112	      1.52169628	      0.02655861	     17.40219330	     -4.69430324	      0.00000000	      2.33643761	     -4.52015249	     -5.83853449	      1.11447461	      0.01945125	     25.30536451	      6.01736722	      0.00000000	      0.16459391	      0.25960814	      1.34607493	      0.30566736	      0.34527882	      1.43020462	      0.27041134	      0.63121123	      1.43020462	      0.18811438	      0.63121123	      1.17781557	      0.15284191	      0.52939291	      1.09368588	      0.09404896	      0.40213301	      1.00955620	      1.17567787	      2.93673917	      7.48646496	      0.00000000	      0.00000000	     25.04477514	      4.09137740	      8.60636766	     16.50770996	    -10.97395148	     76.75569520	     39.55545039	     33.68034171	      1.91995181	      8.50620964	     13.96061963	     -4.60851581	     59.21884424	     36.95155682	     80.04133767	      6.87791028	     11.29778245
      0.03333333	     -1.07351041	     -3.84511472	     82.79149411	      0.13484892	      0.97095543	      0.44433597	      1.80275529	      2.77152017	     14.57918321	      1.00581908	      0.01755485	     16.60365749	    -10.21885967	      0.00000000	      2.09801807	     -4.93852469	     -4.94452256	      0.86921489	      0.01517066	     25.01762770	      5.94455410	      0.00000000	      0.17053984	      0.31674259	      1.21897687	      0.31670953	      0.42126764	      1.29516292	      0.28017990	      0.77012792	      1.29516292	      0.19490998	      0.77012792	      1.06660476	      0.15836329	      0.64590148	      0.99041871	      0.09744646	      0.49063427	      0.91423265	      1.21814900	      3.58305548	      6.77958366	      0.00000000	      0.00000000	     25.33340322	      3.37736219	      8.72396223	     16.63836477	    -11.06778458	     78.17555443	     39.60497388	     28.46231430	      1.44324435	      9.23285146	     14.81009642	     -4.30155046	     62.79939856	     35.41831295	     75.72271139	      6.97758145	      9.53653334
      0.05000000	     -0.64015653	     -3.76176270	     83.44371581	      0.13365175	      0.97135546	      0.44357031	      1.72265731	      3.14856538	     14.43459010	      0.82931989	      0.01447436	     16.74481130	    -10.73239369	      0.00000000	      1.91766266	     -5.33730200	     -4.41635241	      0.70163657	      0.01224587	     24.91962302	      6.27496617	      0.00000000	      0.16847737	      0.37680138	      1.08497153	      0.31287933	      0.50114583	      1.15278225	      0.27679148	      0.91615486	      1.15278225	      0.19255279	      0.91615486	      0.94935009	      0.15644809	      0.76837336	      0.88153937	      0.09626797	      0.58366533	      0.81372865	      1.20341703	      4.26245252	      6.03428618	      0.00000000	      0.00000000	     25.56204392	      2.69511144	      8.96757130	     16.57842544	    -11.19634389	     78.32677396	     39.51895392	     28.25417512	      1.58865421	      9.32988372	     14.88662216	     -3.95035817	     63.26448394	     34.86545201	     75.72176714	      6.95114905	      9.35125499
      0.06666667	     -0.41870866	     -3.65653384	     84.24536511	      0.13283719	      0.97170812	      0.44304120	      1.62433226	      3.31859511	     12.64157934	      0.77023273	      0.01344310	     17.26942976	     -8.91526335	      0.00000000	      1.83615065	     -5.55613542	     -4.11502266	      0.62568273	      0.01092022	     24.84612545	      7.14564191	      0.00000000	      0.16401082	      0.39685436	      0.93908594	      0.30458449	      0.52781630	      0.99777882	      0.26945337	      0.96491169	      0.99777882	      0.18744797	      0.96491169	      0.82170020	      0.15230045	      0.80926541	      0.76300733	      0.09371578	      0.61472741	      0.70431446	      1.17151288	      4.48929591	      5.22291429	      0.00000000	      0.00000000	     25.67184051	      2.53568969	      8.95074087	     16.45032153	    -11.12574605	     78.05100474	     39.41275800	     29.07495012	      1.41502847	      9.03755528	     15.08379042	     -3.95678683	     64.20681183	     34.77143344	     74.20252866	      6.14795523	      9.28903732
      0.08333333	     -0.18338195	     -3.62373974	     84.48709703	      0.13231142	      0.97188283	      0.44267573	      1.56183175	      3.56632927	     14.51971034	      0.69451427	      0.01212156	     16.20429616	    -12.24731478	      0.00000000	      1.75218430	     -5.76090401	     -3.23026029	      0.56352758	      0.00983541	     24.77345423	      6.29130270	      0.00000000	      0.16727191	      0.42883995	      0.90765228	      0.31064067	      0.57035713	      0.96438054	      0.27481103	      1.04268144	      0.96438054	      0.19117507	      1.04268144	      0.79419574	      0.15532870	      0.87449042	      0.73746747	      0.09557917	      0.66427308	      0.68073921	      1.19480654	      4.85112323	      5.04808966	      0.00000000	      0.00000000	     25.59011797	      2.29112093	      8.99257526	     16.63577309	    -11.36667919	     78.90120934	     39.54695784	     27.89842339	      1.65662664	      8.12639259	     15.36179637	     -3.78326475	     64.90284474	     34.56791950	     77.50942060	      5.35071566	      7.80474642
